<svg xmlns="http://www.w3.org/2000/svg" width="414.026" height="331.932" viewBox="0 0 414.026 331.932">
  <g id="logo" transform="translate(-48.987 -49.171)">
    <path id="_96El1zGoHdMSw1VkegBeQ" d="M71.08,71.08,0,71.08A71.08,71.08,0,1,0,71.08,0,71.08,71.08,0,0,0,0,71.08" transform="translate(184.919 84.216)" fill="#e76c6c"/>
    <path id="_3pQgmpnnD4K6OXl1eXOx_" d="M47.407,47.407,0,47.407A47.407,47.407,0,1,0,47.407,0,47.407,47.407,0,0,0,0,47.407" transform="translate(208.593 107.999)" fill="#fff"/>
    <path id="_WVen3suyll6sdNDI-KQWD" d="M183.69,13.788C174.077,4.171,151.851,12.666,126.5,30.1A74.017,74.017,0,0,0,30.1,126.5C12.668,151.849,4.173,174.073,13.788,183.69c2.753,2.755,6.54,4.023,11.138,4.023,11.46,0,27.961-7.9,46.054-20.336a74.018,74.018,0,0,0,96.4-96.395C184.808,45.629,193.305,23.405,183.69,13.788Zm-58.1,76.371a4.937,4.937,0,0,0-5.81,3.873l-4.937,24.685v.01a5.018,5.018,0,0,0-.081,1.1c0,.113.022.219.032.332a4.889,4.889,0,0,0,.134.768c.032.118.063.233.1.348a4.76,4.76,0,0,0,.322.727c.051.095.093.192.148.282a5.008,5.008,0,0,0,.693.891,5.085,5.085,0,0,0,.762.624,4.871,4.871,0,0,0,.6.32c.085.041.164.1.253.132a5.146,5.146,0,0,0,.7.211c.075.018.146.051.223.065a5.007,5.007,0,0,0,.954.095,4.872,4.872,0,0,0,.956-.095.025.025,0,0,0,.012,0l24.685-4.937A4.937,4.937,0,0,0,143.4,109.9l-9.2,1.84a390.4,390.4,0,0,0,26.132-31,64.159,64.159,0,0,1-118.9,46.832,357.2,357.2,0,0,1,28.212-34.2l-1.627,8.132a4.937,4.937,0,0,0,3.873,5.81,4.991,4.991,0,0,0,.974.1,4.941,4.941,0,0,0,4.836-3.969l4.937-24.685v-.01a5.019,5.019,0,0,0,.081-1.1c0-.113-.022-.219-.032-.332a4.889,4.889,0,0,0-.134-.768c-.032-.118-.063-.233-.1-.348a4.76,4.76,0,0,0-.322-.727c-.051-.095-.093-.192-.148-.282a5.008,5.008,0,0,0-.693-.891,4.875,4.875,0,0,0-.893-.7c-.087-.053-.18-.095-.271-.142a4.905,4.905,0,0,0-.746-.33c-.107-.036-.213-.067-.324-.1a5.1,5.1,0,0,0-.806-.14c-.1-.01-.2-.026-.3-.028a5,5,0,0,0-1.112.079h-.01L52.142,77.889a4.937,4.937,0,1,0,1.937,9.682l9.2-1.84a390.4,390.4,0,0,0-26.132,31,64.159,64.159,0,0,1,118.9-46.83,357.2,357.2,0,0,1-28.212,34.2l1.627-8.132A4.937,4.937,0,0,0,125.59,90.159ZM20.771,176.707c-4.058-4.058.731-19.057,14.41-40.015a74.591,74.591,0,0,0,25.6,25.6C39.829,175.979,24.833,180.765,20.771,176.707ZM162.3,60.786a74.614,74.614,0,0,0-25.6-25.6c20.958-13.679,35.953-18.466,40.013-14.412S175.979,39.825,162.3,60.786Z" transform="translate(179.95 37.587) rotate(12.001)" fill="#21333b"/>
    <path id="_Ps-M7Dy_QL1SVWF_rs-lM" d="M-206.6-98.719h77.294V-87.49h-31.9V0h-13.365V-87.49H-206.6ZM-104.919,0h-12.262V-101.474h12.262v41.058A37.782,37.782,0,0,1-95-68.035a26.619,26.619,0,0,1,12.538-2.852h0A25.329,25.329,0,0,1-72.362-69a19.7,19.7,0,0,1,7.3,5.373,23.866,23.866,0,0,1,4.436,8.377,36.425,36.425,0,0,1,1.516,10.816h0V0H-71.37V-44.434q0-7.922-3.61-12.3T-86.043-61.1h0A20.574,20.574,0,0,0-96.2-58.487a33.416,33.416,0,0,0-8.721,7.1h0Zm76.605,0H-40.576V-69.785h7.027a3.878,3.878,0,0,1,2.756.758,4.648,4.648,0,0,1,1.033,2.618h0l.827,10.885a31.951,31.951,0,0,1,8.859-11.408A19.55,19.55,0,0,1-7.716-71.025h0a19.641,19.641,0,0,1,5.236.648,18.457,18.457,0,0,1,4.34,1.832h0L.276-59.383A2.071,2.071,0,0,1-1.86-57.661h0a10.621,10.621,0,0,1-2.962-.661,18.871,18.871,0,0,0-5.58-.648h0a15.779,15.779,0,0,0-10.705,3.72,27.884,27.884,0,0,0-7.206,10.816h0Zm44.64-69.785H28.589V0H16.327ZM31.345-91.692h0a7.82,7.82,0,0,1-.716,3.334A9.675,9.675,0,0,1,28.7-85.6a8.986,8.986,0,0,1-2.8,1.9,8.374,8.374,0,0,1-3.376.689h0a8.085,8.085,0,0,1-3.334-.689,8.913,8.913,0,0,1-2.756-1.9,8.913,8.913,0,0,1-1.9-2.756,8.085,8.085,0,0,1-.689-3.334h0a8.669,8.669,0,0,1,.689-3.417,8.9,8.9,0,0,1,1.9-2.824,9.031,9.031,0,0,1,2.756-1.888,8.085,8.085,0,0,1,3.334-.689h0a8.374,8.374,0,0,1,3.376.689,9.106,9.106,0,0,1,2.8,1.888,9.63,9.63,0,0,1,1.929,2.824A8.382,8.382,0,0,1,31.345-91.692ZM65.307,0H52.976V-59.314l-7.716-.9a6.014,6.014,0,0,1-2.37-1.075,2.475,2.475,0,0,1-.937-2.094h0v-5.029H52.976v-6.751a31.034,31.034,0,0,1,1.695-10.65,21.529,21.529,0,0,1,4.822-7.853,20.415,20.415,0,0,1,7.537-4.85,28.089,28.089,0,0,1,9.92-1.653h0a26.461,26.461,0,0,1,8.68,1.378h0l-.276,6.131A1.566,1.566,0,0,1,84.183-91a13.47,13.47,0,0,1-3.1.276H78.947A18.747,18.747,0,0,0,73.2-89.9a10.863,10.863,0,0,0-4.45,2.687A12.1,12.1,0,0,0,65.9-82.323a24.11,24.11,0,0,0-1.006,7.509h0v6.407H85.079v8.887H65.307ZM117.8,1.1h0q-8.267,0-12.7-4.616t-4.45-13.3h0V-59.521h-8.4a2.729,2.729,0,0,1-1.86-.661,2.522,2.522,0,0,1-.758-2.025h0V-67.1l11.436-1.447,2.824-21.562a2.634,2.634,0,0,1,.9-1.695,2.865,2.865,0,0,1,1.929-.648h6.2v24.042h19.978v8.887H112.91v41.885q0,4.409,2.136,6.545a7.458,7.458,0,0,0,5.511,2.136h0a9.671,9.671,0,0,0,3.348-.524,14.078,14.078,0,0,0,2.439-1.13q1.033-.62,1.764-1.144a2.286,2.286,0,0,1,1.268-.51h0a2.111,2.111,0,0,1,1.722,1.171h0l3.582,5.856a22.757,22.757,0,0,1-7.647,4.643A25.872,25.872,0,0,1,117.8,1.1Zm89.625-70.887L168.5,20.6a6.469,6.469,0,0,1-1.543,2.2,4.236,4.236,0,0,1-2.866.827H155L167.746-4.064l-28.8-65.721h10.609a3.635,3.635,0,0,1,2.48.785,5.02,5.02,0,0,1,1.309,1.764h0l18.669,43.952q.62,1.516,1.075,3.031t.785,3.1h0q.482-1.584.964-3.1t1.1-3.1h0l18.118-43.883a3.944,3.944,0,0,1,1.419-1.832,3.617,3.617,0,0,1,2.163-.716h9.782Z" transform="translate(255.587 357.474)" fill="#19282e"/>
  </g>
</svg>
