<svg xmlns="http://www.w3.org/2000/svg" style="overflow: visible;" viewBox="0 0 512 512" data-svgdocument="" id="_CyIML-dXLxI67iOOzl-wn" class="fl-svgdocument" x="0" y="0" xmlns:xlink="http://www.w3.org/1999/xlink" overflow="hidden"><defs id="_ykw61aJKRlmC1aVGMVTeY" transform="matrix(1.3168058395385742, 0, 0, 1.3168058395385742, -112.17877960205078, -0.08993321657180786)" data-uid="o_emihf70m4_4"></defs><path id="_96El1zGoHdMSw1VkegBeQ" stroke="none" fill="#e76c6c" transform="matrix(0.8042147755622864, 0, 0, 0.8042147755622864, 184.9194793701172, 84.21590423583984)" stroke-width="1" data-type="circle" data-cx="88.385" data-cy="88.385" data-r="88.385" d="M88.385,88.385m-88.385,0a88.385,88.385 0 1, 0 176.77,0a88.385,88.385 0 1, 0 -176.77,0" data-uid="o_emihf70m4_5"></path><path id="_3pQgmpnnD4K6OXl1eXOx_" stroke="none" fill="#ffffff" transform="matrix(0.5363710522651672, 0, 0, 0.5363710522651672, 208.59283447265625, 107.99872589111328)" stroke-width="1" data-type="circle" data-cx="88.385" data-cy="88.385" data-r="88.385" d="M88.385,88.385m-88.385,0a88.385,88.385 0 1, 0 176.77,0a88.385,88.385 0 1, 0 -176.77,0" data-uid="o_emihf70m4_6"></path><path id="_WVen3suyll6sdNDI-KQWD" d="M93.018,6.982c-4.868-4.87-16.123-0.568-28.962,8.261C59.712,13.48,54.969,12.5,50,12.5c-20.678,0-37.5,16.822-37.5,37.5  c0,4.969,0.98,9.712,2.743,14.056C6.415,76.894,2.113,88.148,6.982,93.018c1.394,1.395,3.312,2.037,5.64,2.037  c5.803,0,14.159-3.999,23.321-10.298C40.288,86.52,45.03,87.5,50,87.5c20.678,0,37.5-16.822,37.5-37.5  c0-4.969-0.98-9.712-2.743-14.056C93.584,23.106,97.887,11.852,93.018,6.982z M63.597,45.655c-1.358-0.269-2.671,0.608-2.942,1.961  l-2.5,12.5c0,0.002,0,0.004,0,0.005c-0.036,0.184-0.046,0.371-0.041,0.557c0.002,0.057,0.011,0.111,0.016,0.168  c0.013,0.131,0.034,0.26,0.068,0.389c0.016,0.06,0.032,0.118,0.052,0.176c0.043,0.127,0.099,0.249,0.163,0.368  c0.026,0.048,0.047,0.097,0.075,0.143c0.099,0.159,0.213,0.312,0.351,0.451c0.119,0.119,0.249,0.224,0.386,0.316  c0.097,0.065,0.201,0.112,0.304,0.162c0.043,0.021,0.083,0.049,0.128,0.067c0.115,0.047,0.234,0.077,0.353,0.107  c0.038,0.009,0.074,0.026,0.113,0.033c0.16,0.031,0.321,0.048,0.483,0.048c0.162,0,0.324-0.016,0.484-0.048  c0.002,0,0.004,0,0.006-0.001l12.5-2.5c1.354-0.271,2.232-1.588,1.961-2.942c-0.271-1.354-1.585-2.229-2.942-1.961l-4.658,0.932  c4.835-5.19,9.337-10.518,13.233-15.697C82.037,43.782,82.5,46.837,82.5,50c0,17.92-14.58,32.5-32.5,32.5  c-12.67,0-23.662-7.292-29.02-17.896c3.792-5.283,8.553-11.138,14.286-17.319l-0.824,4.118c-0.271,1.354,0.607,2.671,1.961,2.942  c0.166,0.033,0.331,0.049,0.493,0.049c1.167,0,2.211-0.822,2.449-2.01l2.5-12.5c0-0.002,0-0.004,0-0.005  c0.036-0.184,0.046-0.371,0.041-0.557c-0.002-0.057-0.011-0.111-0.016-0.168c-0.013-0.131-0.034-0.26-0.068-0.389  c-0.016-0.06-0.032-0.118-0.052-0.176c-0.043-0.127-0.099-0.249-0.163-0.368c-0.026-0.048-0.047-0.097-0.075-0.143  c-0.099-0.159-0.213-0.312-0.351-0.451c-0.139-0.139-0.292-0.253-0.452-0.352c-0.044-0.027-0.091-0.048-0.137-0.072  c-0.123-0.066-0.248-0.123-0.378-0.167c-0.054-0.018-0.108-0.034-0.164-0.049c-0.135-0.035-0.27-0.058-0.408-0.071  c-0.05-0.005-0.099-0.013-0.15-0.014c-0.189-0.006-0.377,0.004-0.563,0.04c-0.002,0-0.004,0-0.005,0l-12.5,2.5  c-1.354,0.271-2.232,1.588-1.961,2.942c0.271,1.354,1.585,2.23,2.942,1.961l4.658-0.932c-4.835,5.19-9.337,10.518-13.233,15.697  C17.963,56.218,17.5,53.163,17.5,50c0-17.92,14.58-32.5,32.5-32.5c12.67,0,23.662,7.292,29.02,17.896  c-3.792,5.283-8.553,11.138-14.286,17.319l0.824-4.118C65.829,47.243,64.951,45.926,63.597,45.655z M10.518,89.482  c-2.055-2.055,0.37-9.65,7.297-20.263c3.186,5.316,7.65,9.78,12.966,12.966C20.169,89.113,12.575,91.537,10.518,89.482z   M82.185,30.781c-3.186-5.315-7.65-9.779-12.965-12.965c10.613-6.927,18.206-9.351,20.262-7.298  C91.538,12.573,89.113,20.167,82.185,30.781z" stroke="none" fill="#21333b" transform="matrix(1.9316215515136719, 0.41060951352119446, -0.41060951352119446, 1.9316215515136719, 179.94969177246094, 37.587188720703125)" stroke-width="1" data-uid="o_emihf70m4_7"></path><path text="Thrifty" text-anchor="middle" font-size="100" letter-spacing="0" side="left" offset="0.5" dx="0" dy="0" space="preserve" href="" font-family="Lato" font-scale="contain" transform="matrix(1.3777896165847778, 0, 0, 1.3777896165847778, 255.58665466308594, 357.4742126464844)" x="0" y="0" fill="#19282e" data-fl-textpath="" id="_Ps-M7Dy_QL1SVWF_rs-lM" font-weight="400" font-style="normal" data-uid="o_emihf70m4_8" d="M-149.95-71.65L-93.85-71.65L-93.85-63.5L-117-63.5L-117 0L-126.69999999999999 0L-126.69999999999999-63.5L-149.95-63.5L-149.95-71.65ZM-76.14999999999999 0L-85.05 0L-85.05-73.65L-76.14999999999999-73.65L-76.14999999999999-43.85Q-72.89999999999999-47.3 -68.94999999999999-49.38Q-65-51.45 -59.849999999999994-51.45L-59.849999999999994-51.45Q-55.699999999999996-51.45 -52.519999999999996-50.08Q-49.349999999999994-48.7 -47.21999999999999-46.18Q-45.099999999999994-43.65 -43.99999999999999-40.1Q-42.89999999999999-36.55 -42.89999999999999-32.25L-42.89999999999999-32.25L-42.89999999999999 0L-51.8 0L-51.8-32.25Q-51.8-38 -54.419999999999995-41.18Q-57.05-44.35 -62.449999999999996-44.35L-62.449999999999996-44.35Q-66.39999999999999-44.35 -69.82-42.45Q-73.25-40.55 -76.14999999999999-37.3L-76.14999999999999-37.3L-76.14999999999999 0ZM-20.549999999999994 0L-29.449999999999992 0L-29.449999999999992-50.65L-24.349999999999994-50.65Q-22.89999999999999-50.65 -22.349999999999994-50.1Q-21.799999999999994-49.55 -21.599999999999994-48.2L-21.599999999999994-48.2L-20.999999999999993-40.3Q-18.39999999999999-45.6 -14.569999999999993-48.58Q-10.749999999999993-51.55 -5.599999999999994-51.55L-5.599999999999994-51.55Q-3.499999999999993-51.55 -1.79999999999999-51.08Q-0.09999999999999432-50.6  1.3500000000000085-49.75L 1.3500000000000085-49.75L 0.20000000000000995-43.1Q-0.14999999999999147-41.85 -1.3499999999999943-41.85L-1.3499999999999943-41.85Q-2.04999999999999-41.85 -3.499999999999993-42.33Q-4.949999999999992-42.8 -7.549999999999994-42.8L-7.549999999999994-42.8Q-12.199999999999992-42.8 -15.319999999999993-40.1Q-18.449999999999992-37.4 -20.549999999999994-32.25L-20.549999999999994-32.25L-20.549999999999994 0ZM 11.850000000000012-50.65L 20.75000000000001-50.65L 20.75000000000001 0L 11.850000000000012 0L 11.850000000000012-50.65ZM 22.75000000000001-66.55L 22.75000000000001-66.55Q 22.75000000000001-65.25  22.23000000000001-64.13Q 21.70000000000001-63  20.830000000000013-62.13Q 19.95000000000001-61.25  18.80000000000001-60.75Q 17.650000000000013-60.25  16.350000000000012-60.25L 16.350000000000012-60.25Q 15.050000000000011-60.25  13.930000000000012-60.75Q 12.800000000000011-61.25  11.930000000000012-62.13Q 11.050000000000011-63  10.550000000000011-64.13Q 10.050000000000011-65.25  10.050000000000011-66.55L 10.050000000000011-66.55Q 10.050000000000011-67.85  10.550000000000011-69.03Q 11.050000000000011-70.2  11.930000000000012-71.08Q 12.800000000000011-71.95  13.930000000000012-72.45Q 15.050000000000011-72.95  16.350000000000012-72.95L 16.350000000000012-72.95Q 17.650000000000013-72.95  18.80000000000001-72.45Q 19.95000000000001-71.95  20.830000000000013-71.08Q 21.70000000000001-70.2  22.23000000000001-69.03Q 22.75000000000001-67.85  22.75000000000001-66.55ZM 47.40000000000001 0L 38.45000000000002 0L 38.45000000000002-43.05L 32.850000000000016-43.7Q 31.80000000000001-43.95  31.130000000000013-44.48Q 30.450000000000014-45  30.450000000000014-46L 30.450000000000014-46L 30.450000000000014-49.65L 38.45000000000002-49.65L 38.45000000000002-54.55Q 38.45000000000002-58.9  39.680000000000014-62.28Q 40.90000000000001-65.65  43.180000000000014-67.98Q 45.45000000000002-70.3  48.65000000000001-71.5Q 51.85000000000001-72.7  55.85000000000001-72.7L 55.85000000000001-72.7Q 59.250000000000014-72.7  62.15000000000001-71.7L 62.15000000000001-71.7L 61.95000000000001-67.25Q 61.90000000000001-66.25  61.10000000000001-66.05Q 60.30000000000001-65.85  58.85000000000001-65.85L 58.85000000000001-65.85L 57.30000000000001-65.85Q 55.000000000000014-65.85  53.13000000000001-65.25Q 51.250000000000014-64.65  49.90000000000001-63.3Q 48.55000000000001-61.95  47.83000000000001-59.75Q 47.10000000000001-57.55  47.10000000000001-54.3L 47.10000000000001-54.3L 47.10000000000001-49.65L 61.750000000000014-49.65L 61.750000000000014-43.2L 47.40000000000001-43.2L 47.40000000000001 0ZM 85.5 0.8L 85.5 0.8Q 79.5 0.8  76.28-2.55Q 73.05000000000001-5.9  73.05000000000001-12.2L 73.05000000000001-12.2L 73.05000000000001-43.2L 66.95-43.2Q 66.15-43.2  65.60000000000001-43.68Q 65.05000000000001-44.15  65.05000000000001-45.15L 65.05000000000001-45.15L 65.05000000000001-48.7L 73.35000000000001-49.75L 75.4-65.4Q 75.50000000000001-66.15  76.05000000000001-66.63Q 76.60000000000001-67.1  77.45-67.1L 77.45-67.1L 81.95000000000002-67.1L 81.95000000000002-49.65L 96.45000000000002-49.65L 96.45000000000002-43.2L 81.95000000000002-43.2L 81.95000000000002-12.8Q 81.95000000000002-9.6  83.5-8.05Q 85.05000000000001-6.5  87.5-6.5L 87.5-6.5Q 88.9-6.5  89.93-6.88Q 90.95000000000002-7.25  91.70000000000002-7.7Q 92.45000000000002-8.15  92.98-8.53Q 93.5-8.9  93.9-8.9L 93.9-8.9Q 94.60000000000001-8.9  95.15-8.05L 95.15-8.05L 97.75-3.8Q 95.45000000000002-1.65  92.20000000000002-0.43Q 88.95000000000002 0.8  85.5 0.8ZM 150.55000000000004-50.65L 122.30000000000004 14.95Q 121.85000000000004 15.95  121.18000000000004 16.55Q 120.50000000000003 17.15  119.10000000000004 17.15L 119.10000000000004 17.15L 112.50000000000003 17.15L 121.75000000000003-2.95L 100.85000000000004-50.65L 108.55000000000004-50.65Q 109.70000000000003-50.65  110.35000000000004-50.08Q 111.00000000000003-49.5  111.30000000000004-48.8L 111.30000000000004-48.8L 124.85000000000004-16.9Q 125.30000000000004-15.8  125.63000000000004-14.7Q 125.95000000000003-13.6  126.20000000000003-12.45L 126.20000000000003-12.45Q 126.55000000000004-13.6  126.90000000000003-14.7Q 127.25000000000003-15.8  127.70000000000003-16.95L 127.70000000000003-16.95L 140.85000000000002-48.8Q 141.15000000000003-49.6  141.88000000000002-50.13Q 142.60000000000002-50.65  143.45000000000005-50.65L 143.45000000000005-50.65L 150.55000000000004-50.65Z"></path></svg>